
                <svg 
                xmlns="http://www.w3.org/2000/svg" 
                height="120" 
                width="120" 
                stroke-width="1"
                stroke-linecap="round" 
                stroke-linejoin="round"
                viewBox="0 0 24 24"
                >
                <defs><style>.as-1{stroke:#000000;fill:none}.as-2{stroke:#22B573;fill:#22B573}</style></defs><g><path d="M2 14.5C2 16.9853 4.01472 19 6.5 19H18.5C18.659 19 18.8155 18.9894 18.9689 18.9689L7.05025 7.05025C6.15091 7.9496 5.54744 9.03278 5.23984 10.1788C3.36791 10.7238 2 12.4522 2 14.5Z" class="as-2"></path>
<path d="M10.7659 5.10902C12.9427 4.72115 15.2677 5.36823 16.9497 7.05025C18.3256 8.4261 19.009 10.2322 18.9999 12.0354C20.6961 12.278 22 13.7367 22 15.5C22 15.7611 21.9714 16.0155 21.9172 16.2603M6.5 19C4.01472 19 2 16.9853 2 14.5C2 12.4522 3.36791 10.7238 5.23984 10.1788C5.54744 9.03278 6.15091 7.9496 7.05025 7.05025L18.9689 18.9689C18.8155 18.9894 18.659 19 18.5 19H6.5Z" class="as-2" style="fill:none"></path>
<path d="M4.00018 4L20.0002 20" class="as-1"></path></g>
                </svg>