
                <svg 
                xmlns="http://www.w3.org/2000/svg" 
                height="120" 
                width="120" 
                stroke-width="1"
                stroke-linecap="round" 
                stroke-linejoin="round"
                viewBox="0 0 24 24"
                >
                <defs><style>.as-1{stroke:#000000;fill:#000000}.as-2{stroke:none;fill:#22B573}</style></defs><g><path d="M5 7.99994C4.44772 7.99994 4 8.44765 4 8.99994C4 9.55222 4.44772 9.99994 5 9.99994V7.99994ZM5 15.9999C4.44772 15.9999 4 16.4477 4 16.9999C4 17.5522 4.44772 17.9999 5 17.9999V15.9999ZM5 9.99994H16V7.99994H5V9.99994ZM19 12.9999C19 14.6568 17.6569 15.9999 16 15.9999V17.9999C18.7614 17.9999 21 15.7614 21 12.9999H19ZM16 9.99994C17.6569 9.99994 19 11.3431 19 12.9999H21C21 10.2385 18.7614 7.99994 16 7.99994V9.99994ZM5 17.9999H16V15.9999H5V17.9999Z" class="as-2"></path>
<path d="M8 5.99994L5 8.99994L8 11.9999" class="as-1" style="fill:none"></path></g>
                </svg>