
                <svg 
                xmlns="http://www.w3.org/2000/svg" 
                height="120" 
                width="120" 
                stroke-width="1"
                stroke-linecap="round" 
                stroke-linejoin="round"
                viewBox="0 0 24 24"
                >
                <defs><style>.as-1{stroke:#000000;fill:#000000}.as-2{stroke:#22B573;fill:#22B573}</style></defs><g><path d="M4.92882 13.1421L10.5857 18.799C11.3667 19.58 12.6331 19.58 13.4141 18.799L16.1066 16.1065L5.54587 5.54581C5.32975 5.70153 5.12327 5.87661 4.92882 6.07106C2.9762 8.02369 2.9762 11.1895 4.92882 13.1421Z" class="as-2"></path>
<path d="M10.8896 5.2327C11.2877 5.45367 11.6619 5.73312 11.9999 6.07106C13.9525 4.11844 17.1183 4.11844 19.071 6.07106C21.0236 8.02369 21.0236 11.1895 19.071 13.1421L18.935 13.2781M4.92882 13.1421L10.5857 18.799C11.3667 19.58 12.6331 19.58 13.4141 18.799L16.1066 16.1065L5.54587 5.54581C5.32975 5.70153 5.12327 5.87661 4.92882 6.07106C2.9762 8.02369 2.9762 11.1895 4.92882 13.1421Z" class="as-2" style="fill:none"></path>
<path d="M4.00012 4L20.0001 20" class="as-1"></path></g>
                </svg>