
                <svg 
                xmlns="http://www.w3.org/2000/svg" 
                height="120" 
                width="120" 
                fill="#000000" 
                viewBox="0 0 24 24"
                >
                <path fill-rule="evenodd" clip-rule="evenodd" d="M12.7071 2.29289C12.3166 1.90237 11.6834 1.90237 11.2929 2.29289L4.29325 9.29254L4.29254 9.29325L2.29289 11.2929C1.90237 11.6834 1.90237 12.3166 2.29289 12.7071C2.68342 13.0976 3.31658 13.0976 3.70711 12.7071L4 12.4142V19C4 20.6569 5.34315 22 7 22H17C18.6569 22 20 20.6569 20 19V12.4142L20.2929 12.7071C20.6834 13.0976 21.3166 13.0976 21.7071 12.7071C22.0976 12.3166 22.0976 11.6834 21.7071 11.2929L12.7071 2.29289Z"></path>

                </svg>